<svg xmlns="http://www.w3.org/2000/svg"><symbol id="comment" viewBox="0 0 230.2 213.3"><path fill-rule="evenodd" d="M195.3 26.7c-21.1-17-50-26.7-79-26.7S58.6 9.5 37.1 26.9 2.3 69.4 2.3 95.8A85.2 85.2 0 0 0 20.4 148L0 213.3l71.2-30.7a181.5 181.5 0 0 0 43.8 5.6c32.1 0 61.5-9.7 82.8-27.2s32.4-40.4 32.4-65.2c0-26.5-12.4-51-34.9-69.1zm-80.3 143c-17.3 0-31.3-3-43.8-6.2l-1.6-.4-39.9 17.3 11.4-36.5-1.7-1.9c-9.6-11.6-18.6-25.2-18.6-46.2 0-42.6 42.8-77.3 95.5-77.3s95.4 34.7 95.4 77.3-41.5 73.9-96.7 73.9z"/><circle cx="161.8" cy="95.7" r="18.3"/><path fill-rule="evenodd" d="M116.3 114.1a18.4 18.4 0 1 1 18.3-18.4 18.5 18.5 0 0 1-18.3 18.4zm-45.5 0a18.4 18.4 0 1 1 18.3-18.4 18.4 18.4 0 0 1-18.3 18.4z"/></symbol><symbol id="download" viewBox="0 0 172.7 230.3"><path d="M105.5 19.2v105.5h24.1l-43.2 48.1-43.3-48.1h24.1V19.2zM124.7 0H48v105.5H0l86.4 96 86.3-96h-48zm28.8 182.3v28.8H19.2v-28.8H0v48h172.7v-48z"/></symbol><symbol id="share" viewBox="0 0 210.9 210.9"><path d="M0 105.5l96.7 27.2 61.5-71.2-71.7 49.9-37.9-10.6 135-67.5-34.9 128.1-32.9-29.4-19.1 25.7V151l-17.6-4.9v64.8l39.3-53 39.8 35.5L210.9 0z"/></symbol><symbol id="fullscreen" viewBox="0 0 205.7 205.7"><path d="M205.7 77.1h-34.3V34.3h-42.8V0h77.1zm-77.1 128.6v-34.3h42.8v-42.8h34.3v77.1zM0 128.6h34.3v42.8h42.8v34.3H0zM77.1 0v34.3H34.3v42.8H0V0z"/></symbol><symbol id="heart" viewBox="0 0 214.3 196.5"><path d="M107.2 73.5c2.1-10 13.8-55.6 48-55.6 19.9 0 41.3 13.8 41.3 44.6 0 34.9-32.4 75.7-89.3 112.8-56.9-37.1-89.3-77.9-89.3-112.8 0-31.1 21.1-44.7 40.8-44.7 35.1 0 46 45.8 48.5 55.7zM0 62.5c0 36.4 27.3 84.7 107.2 134 79.8-49.3 107.1-97.6 107.1-134 0-71.1-86.1-80.6-107.1-33.3C86.3-17.8 0-9 0 62.5z"/></symbol></svg>